Patient4_TMGait_0pt3_02_right_26_GRF.mot
version=1
nRows=71
nColumns=19
inDegrees=no
endheader
time	F1x	F1y	F1z	M1x	M1y	M1z	F2x	F2y	F2z	M2x	M2y	M2z	EC1x	EC1y	EC1z	EC2x	EC2y	EC2z
49.99	-4.8423	748.1425	59.757	-248.0203	-62.9351	763.4497	1.7969	14.0752	-1.5682	5.803	2.4384	12.4978	-0.0592	0.0182	-0.0073	-0.0462	0.0165	0.9585
50.0096	-3.7256	759.1943	59.7984	-252.212	-61.948	772.8632	0.92221	10.8025	-0.96051	4.4212	1.6629	9.736	-0.0592	0.0182	-0.0073	-0.0462	0.0165	0.9585
50.0291	-2.6875	771.9414	59.5844	-257.2026	-60.7451	783.4434	0.29666	7.74	-0.4602	3.1415	0.97563	7.1563	-0.0592	0.0182	-0.0073	-0.0462	0.0165	0.9585
50.0487	-1.8771	785.9177	59.0831	-262.8287	-59.3689	794.7738	-0.097602	5.2228	-0.090619	2.0982	0.43175	5.0404	-0.0592	0.0182	-0.0073	-0.0462	0.0165	0.9585
50.0683	-1.3966	800.9151	58.3371	-268.9732	-57.891	806.7094	-0.31384	3.3622	0.15295	1.3341	0.045084	3.4802	-0.0592	0.0182	-0.0073	-0.0462	0.0165	0.9585
50.0879	-1.2675	816.8659	57.4598	-275.5389	-56.4134	819.2357	-0.40833	2.1204	0.29077	0.83113	-0.19834	2.4435	-0.0592	0.0182	-0.0073	-0.0462	0.0165	0.9585
50.1074	-1.4264	833.5149	56.6014	-282.3525	-55.0469	832.136	-0.43119	1.3786	0.35031	0.53817	-0.32651	1.8275	-0.0592	0.0182	-0.0073	-0.0462	0.0165	0.9585
50.127	-1.7241	850.0552	55.9152	-289.0527	-53.8826	844.6429	-0.42098	0.97883	0.3613	0.3885	-0.37269	1.4915	-0.0592	0.0182	-0.0073	-0.0462	0.0165	0.9585
50.1466	-1.9714	864.864	55.5217	-295.0104	-52.9728	855.2078	-0.40305	0.7532	0.35078	0.31151	-0.37148	1.2846	-0.0592	0.0182	-0.0073	-0.0462	0.0165	0.9585
50.1661	-1.9964	875.6091	55.4603	-299.3762	-52.3078	861.6131	-0.39256	0.53921	0.3407	0.23889	-0.35143	1.0596	-0.0592	0.0182	-0.0073	-0.0462	0.0165	0.9585
50.1857	-1.6584	879.8359	55.6469	-301.292	-51.7722	861.5379	-0.39476	0.1873	0.346	0.10931	-0.33453	0.67415	-0.0592	0.0182	-0.0073	-0.0462	0.0165	0.9585
50.2053	-0.84795	875.7159	55.8925	-300.1494	-51.1582	853.2783	-0.40698	-0.42981	0.37537	-0.12909	-0.3369	0.0025073	-0.0592	0.0182	-0.0073	-0.0462	0.0165	0.9585
50.2249	0.49171	862.6036	55.9693	-295.7692	-50.2352	836.2758	-0.41927	-1.4041	0.43327	-0.51449	-0.37136	-1.0525	-0.0592	0.0182	-0.0073	-0.0462	0.0165	0.9585
50.2444	2.3837	841.326	55.6975	-288.4857	-48.8239	811.3806	-0.41175	-2.7716	0.51773	-1.0616	-0.44739	-2.5364	-0.0592	0.0182	-0.0073	-0.0462	0.0165	0.9585
50.264	4.8249	814.0895	55.0127	-279.103	-46.8598	780.7401	-0.35428	-4.4769	0.61696	-1.7484	-0.56572	-4.3924	-0.0592	0.0182	-0.0073	-0.0462	0.0165	0.9585
50.2836	7.7936	784.0574	53.977	-268.7448	-44.404	747.38	-0.20538	-6.3219	0.70928	-2.4957	-0.71894	-6.4073	-0.0592	0.0182	-0.0073	-0.0462	0.0165	0.9585
50.3031	11.2781	754.7152	52.7564	-258.6332	-41.6123	714.5907	0.084764	-7.901	0.75949	-3.1412	-0.88694	-8.1465	-0.0592	0.0182	-0.0073	-0.0462	0.0165	0.9585
50.3227	15.2548	729.1538	51.571	-249.8396	-38.6911	685.2646	0.56848	-8.5403	0.71526	-3.4147	-1.0318	-8.8851	-0.0592	0.0182	-0.0073	-0.0462	0.0165	0.9585
50.3423	19.6559	709.4127	50.6201	-243.0608	-35.8426	661.3218	1.2879	-7.2431	0.50394	-2.9154	-1.0903	-7.5577	-0.0592	0.0182	-0.0073	-0.0462	0.0165	0.9585
50.3619	24.3481	696.0597	50.0267	-238.4801	-33.226	643.3561	2.2559	-2.6692	0.036708	-1.1037	-0.96939	-2.7329	-0.0592	0.0182	-0.0073	-0.0462	0.0165	0.9585
50.3814	29.1088	688.0685	49.8241	-235.7237	-30.958	630.5396	3.4259	6.8108	-0.78401	2.6783	-0.5374	7.3347	-0.0592	0.0182	-0.0073	-0.0462	0.0165	0.9585
50.401	33.6116	682.9911	49.9604	-233.9244	-29.1228	620.7911	4.6556	22.9402	-2.0438	9.136	0.36872	24.516	-0.0592	0.0182	-0.0073	-0.0462	0.0165	0.9585
50.4206	37.4569	677.4124	50.2822	-231.8872	-27.7456	611.1927	5.6301	47.2527	-3.7895	18.8925	1.939	50.4598	-0.0592	0.0182	-0.0073	-0.0462	0.0165	0.9585
50.4401	40.2235	667.6443	50.5357	-228.3355	-26.7729	598.603	5.7174	80.5841	-5.991	32.2943	4.4044	86.0761	-0.0592	0.0182	-0.0073	-0.0462	0.0165	0.9585
50.4597	41.5636	650.5112	50.4094	-222.1871	-26.073	580.3241	4.1105	122.5792	-8.542	49.2109	7.9711	131.0175	-0.0592	0.0182	-0.0073	-0.0462	0.0165	0.9585
50.4793	41.3299	624.1113	49.6091	-212.8131	-25.4497	554.7283	0.58587	171.6142	-11.3348	68.9887	12.6016	183.5651	-0.0592	0.0182	-0.0073	-0.0462	0.0165	0.9585
50.4989	39.6234	588.2392	47.9476	-200.1732	-24.707	521.6043	-4.4509	224.6661	-14.3886	90.3838	18.1275	240.4312	-0.0592	0.0182	-0.0073	-0.0462	0.0165	0.9585
50.5184	36.7835	544.4425	45.3984	-184.8345	-23.6986	482.204	-10.3138	278.2003	-17.837	111.933	24.3733	297.72	-0.0592	0.0182	-0.0073	-0.0462	0.0165	0.9585
50.538	33.3453	495.6687	42.1143	-167.8415	-22.3566	438.9378	-16.2763	330.2908	-21.4924	132.8347	30.819	353.2623	-0.0592	0.0182	-0.0073	-0.0462	0.0165	0.9585
50.5576	29.854	445.2448	38.3446	-150.3632	-20.6817	394.5214	-21.7146	380.0989	-24.9871	152.7506	36.8063	406.0784	-0.0592	0.0182	-0.0073	-0.0462	0.0165	0.9585
50.5771	26.6883	395.9652	34.3184	-133.3768	-18.7097	351.237	-26.1362	426.7783	-27.9849	171.3486	41.78	455.204	-0.0592	0.0182	-0.0073	-0.0462	0.0165	0.9585
50.5967	24.0102	349.8115	30.2374	-117.563	-16.5278	310.7158	-29.1852	469.1071	-30.3337	188.1449	45.4473	499.3087	-0.0592	0.0182	-0.0073	-0.0462	0.0165	0.9585
50.6163	21.8002	308.0562	26.2824	-103.3409	-14.2712	274.0298	-30.6839	505.6994	-32.0576	202.5889	47.7761	536.9255	-0.0592	0.0182	-0.0073	-0.0462	0.0165	0.9585
50.6359	19.9546	271.4434	22.6174	-90.9361	-12.0962	241.8255	-30.6804	535.5207	-33.2145	214.2804	48.8698	567.0008	-0.0592	0.0182	-0.0073	-0.0462	0.0165	0.9585
50.6554	18.3673	240.2473	19.3872	-80.4079	-10.1503	214.3587	-29.4127	558.3132	-33.8063	223.1465	48.8567	589.3388	-0.0592	0.0182	-0.0073	-0.0462	0.0165	0.9585
50.675	16.9521	214.1918	16.6974	-71.6305	-8.5457	191.4039	-27.2109	574.726	-33.805	229.4861	47.8691	604.7223	-0.0592	0.0182	-0.0073	-0.0462	0.0165	0.9585
50.6946	15.6251	192.3418	14.5749	-64.2642	-7.3363	172.1396	-24.4344	586.1522	-33.2489	233.8912	46.1121	614.7201	-0.0592	0.0182	-0.0073	-0.0462	0.0165	0.9585
50.7141	14.2632	173.1998	12.9519	-57.7948	-6.513	155.2366	-21.4299	594.4583	-32.3138	237.1273	43.9197	621.3819	-0.0592	0.0182	-0.0073	-0.0462	0.0165	0.9585
50.7337	12.7013	155.1403	11.6908	-51.6768	-6.0216	139.2533	-18.481	601.6989	-31.2657	240.0222	41.6891	626.9216	-0.0592	0.0182	-0.0073	-0.0462	0.0165	0.9585
50.7533	10.8092	137.0072	10.6359	-45.5297	-5.7834	123.1628	-15.7714	609.7893	-30.3491	243.3432	39.7511	633.366	-0.0592	0.0182	-0.0073	-0.0462	0.0165	0.9585
50.7729	8.5714	118.4168	9.669	-39.2339	-5.7117	106.616	-13.3857	620.1174	-29.7017	247.6421	38.2785	642.1612	-0.0592	0.0182	-0.0073	-0.0462	0.0165	0.9585
50.7924	6.0921	99.6317	8.7255	-32.8878	-5.723	89.8426	-11.3624	633.2046	-29.3552	253.1131	37.2985	653.8466	-0.0592	0.0182	-0.0073	-0.0462	0.0165	0.9585
50.812	3.5435	81.2374	7.7711	-26.698	-5.7339	73.3657	-9.7463	648.6722	-29.2861	259.5727	36.7769	668.0366	-0.0592	0.0182	-0.0073	-0.0462	0.0165	0.9585
50.8316	1.1197	63.8729	6.7855	-20.886	-5.6664	57.7681	-8.6177	665.5525	-29.4746	266.5856	36.7011	683.7615	-0.0592	0.0182	-0.0073	-0.0462	0.0165	0.9585
50.8511	-0.98602	48.0886	5.7599	-15.6364	-5.4525	43.5609	-8.0941	682.7852	-29.9198	273.6708	37.1004	699.9762	-0.0592	0.0182	-0.0073	-0.0462	0.0165	0.9585
50.8707	-2.5815	34.2706	4.6971	-11.0715	-5.036	31.1055	-8.2815	699.6369	-30.616	280.4795	38.0004	715.9692	-0.0592	0.0182	-0.0073	-0.0462	0.0165	0.9585
50.8903	-3.4946	22.6331	3.6149	-7.2543	-4.3788	20.6014	-9.2131	715.8369	-31.5477	286.8541	39.3939	731.4911	-0.0592	0.0182	-0.0073	-0.0462	0.0165	0.9585
50.9099	-3.6421	13.2724	2.5551	-4.206	-3.4923	12.1347	-10.872	731.4968	-32.6953	292.7987	41.2565	746.6754	-0.0592	0.0182	-0.0073	-0.0462	0.0165	0.9585
50.9294	-3.1696	6.2303	1.6	-1.9293	-2.4961	5.7422	-13.2045	746.9583	-34.0227	298.4234	43.5338	761.8673	-0.0592	0.0182	-0.0073	-0.0462	0.0165	0.9585
50.949	-2.4069	1.4105	0.83387	-0.38412	-1.5695	1.3498	-16.0838	762.6339	-35.4601	303.8903	46.1116	777.4302	-0.0592	0.0182	-0.0073	-0.0462	0.0165	0.9585
50.9686	-1.5985	-1.5275	0.28021	0.54531	-0.81259	-1.3309	-19.2522	778.8642	-36.8988	309.3656	48.785	793.5809	-0.0592	0.0182	-0.0073	-0.0462	0.0165	0.9585
50.9881	-0.88439	-3.0336	-0.08072	1.0086	-0.25602	-2.6996	-22.352	795.7493	-38.2184	314.9496	51.2933	810.246	-0.0592	0.0182	-0.0073	-0.0462	0.0165	0.9585
51.0077	-0.32796	-3.5537	-0.28665	1.1538	0.11058	-3.16	-25.0504	813.0067	-39.3018	320.6063	53.3826	826.9792	-0.0592	0.0182	-0.0073	-0.0462	0.0165	0.9585
51.0273	0.05606	-3.4687	-0.38008	1.1071	0.31959	-3.0572	-27.1253	829.9495	-40.0356	326.1341	54.8429	842.987	-0.0592	0.0182	-0.0073	-0.0462	0.0165	0.9585
51.0469	0.28457	-3.0735	-0.40107	0.96732	0.41309	-2.6697	-28.4684	845.5306	-40.3509	331.1627	55.549	857.1797	-0.0592	0.0182	-0.0073	-0.0462	0.0165	0.9585
51.0664	0.39256	-2.5865	-0.3805	0.80536	0.42924	-2.21	-29.0685	858.4388	-40.2617	335.1835	55.4906	868.2528	-0.0592	0.0182	-0.0073	-0.0462	0.0165	0.9585
51.086	0.41686	-2.1633	-0.34	0.66889	0.39772	-1.8193	-28.9815	867.292	-39.8562	337.6353	54.755	874.8699	-0.0592	0.0182	-0.0073	-0.0462	0.0165	0.9585
51.1056	0.38657	-1.9026	-0.29295	0.58755	0.34092	-1.5871	-28.2755	870.8974	-39.2725	338.0224	53.49	875.9006	-0.0592	0.0182	-0.0073	-0.0462	0.0165	0.9585
51.1251	0.32109	-1.8623	-0.24862	0.58005	0.27408	-1.5705	-27.0027	868.4891	-38.6651	336.0262	51.8639	870.6307	-0.0592	0.0182	-0.0073	-0.0462	0.0165	0.9585
51.1447	0.23301	-2.07	-0.21449	0.65804	0.20868	-1.8036	-25.1957	859.8904	-38.1712	331.5819	50.0339	858.9114	-0.0592	0.0182	-0.0073	-0.0462	0.0165	0.9585
51.1643	0.13641	-2.5289	-0.19705	0.82498	0.15731	-2.3032	-22.864	845.5917	-37.873	324.9152	48.1092	841.2321	-0.0592	0.0182	-0.0073	-0.0462	0.0165	0.9585
51.1839	0.054654	-3.2146	-0.20224	1.0742	0.13504	-3.0569	-19.9977	826.736	-37.7736	316.533	46.1235	818.7054	-0.0592	0.0182	-0.0073	-0.0462	0.0165	0.9585
51.2034	0.018501	-4.0642	-0.23597	1.3837	0.15981	-3.9995	-16.5783	804.9956	-37.8016	307.1645	44.0398	792.9531	-0.0592	0.0182	-0.0073	-0.0462	0.0165	0.9585
51.223	0.071418	-4.9516	-0.3046	1.7062	0.25428	-4.9945	-12.583	782.3507	-37.8433	297.6597	41.7737	765.8987	-0.0592	0.0182	-0.0073	-0.0462	0.0165	0.9585
51.2426	0.2684	-5.6492	-0.41466	1.958	0.44197	-5.7983	-8.0042	760.8164	-37.7809	288.864	39.2332	739.511	-0.0592	0.0182	-0.0073	-0.0462	0.0165	0.9585
51.2621	0.66746	-5.7944	-0.5686	2.0063	0.74629	-6.0218	-2.8831	742.151	-37.5305	281.4922	36.3654	715.5407	-0.0592	0.0182	-0.0073	-0.0462	0.0165	0.9585
51.2817	1.3255	-4.8623	-0.76437	1.6611	1.1884	-5.1082	2.6823	727.598	-37.0804	276.0184	33.1948	695.2716	-0.0592	0.0182	-0.0073	-0.0462	0.0165	0.9585
51.3013	2.2856	-2.1633	-0.98869	0.67624	1.7733	-2.3188	8.5292	717.7264	-36.4985	272.6117	29.8361	679.3747	-0.0592	0.0182	-0.0073	-0.0462	0.0165	0.9585
51.3209	3.5518	3.1164	-1.2103	-1.2353	2.4693	3.2303	14.4193	712.3481	-35.907	271.1122	26.4744	667.8438	-0.0592	0.0182	-0.0073	-0.0462	0.0165	0.9585
51.3404	5.0537	11.8076	-1.3725	-4.3638	3.1857	12.4505	20.0264	710.5411	-35.4365	271.0536	23.3347	660.0268	-0.0592	0.0182	-0.0073	-0.0462	0.0165	0.9585
51.36	6.596	24.5601	-1.3874	-8.9315	3.7507	26.0691	24.9407	710.7266	-35.199	271.7118	20.6627	654.6939	-0.0592	0.0182	-0.0073	-0.0462	0.0165	0.9585
